<svg xmlns="http://www.w3.org/2000/svg" width="800" height="600" viewBox="0 0 800 600" role="img" aria-label="同一直线上 A、2A 与负 A 的模长和方向">
<defs>
  <linearGradient id="bg" x1="0" y1="0" x2="1" y2="1"><stop offset="0" stop-color="#fafdff"/><stop offset="1" stop-color="#eaf3ff"/></linearGradient>
  <marker id="b" markerWidth="22" markerHeight="22" refX="2.5" refY="11" orient="auto" markerUnits="userSpaceOnUse"><path d="M2.5 3 L19.5 11 L2.5 19 Z" fill="#244B88"/></marker>
  <marker id="o" markerWidth="22" markerHeight="22" refX="2.5" refY="11" orient="auto" markerUnits="userSpaceOnUse"><path d="M2.5 3 L19.5 11 L2.5 19 Z" fill="#d16b2b"/></marker>
  <marker id="g" markerWidth="22" markerHeight="22" refX="2.5" refY="11" orient="auto" markerUnits="userSpaceOnUse"><path d="M2.5 3 L19.5 11 L2.5 19 Z" fill="#168365"/></marker>
  <style>
  text{font-family:"PingFang SC","Hiragino Sans GB","Microsoft YaHei",Arial,sans-serif;fill:#244B88}
  .title{font-size:32px;font-weight:700}.label{font-size:31px;font-weight:700}.small{font-size:24px;font-weight:600}.formula{font-size:35px;font-weight:700}
  .blue{fill:#244B88}.orange{fill:#d16b2b}.green{fill:#168365}.muted{fill:#6d829a}
  .axis{stroke:#9fb2c9;stroke-width:3;stroke-linecap:round}.dash{stroke:#a6b8cb;stroke-width:3;stroke-dasharray:10 10;fill:none}
  .vb{stroke:#244B88;stroke-width:8;stroke-linecap:butt;fill:none;marker-end:url(#b)}
  .vo{stroke:#d16b2b;stroke-width:8;stroke-linecap:butt;fill:none;marker-end:url(#o)}
  .vg{stroke:#168365;stroke-width:8;stroke-linecap:butt;fill:none;marker-end:url(#g)}
  .point{fill:#244B88}
  </style>
</defs>
<rect width="800" height="600" rx="28" fill="url(#bg)"/>

<text x="68" y="79" class="title blue">数乘改变长度与方向</text>
<path d="M90 176 H720 M90 320 H720 M90 464 H720" class="axis" opacity=".6"/>
<path d="M315 176 L468.00 176.00" class="vb"/>
<path d="M315 320 L638.00 320.00" class="vg"/>
<path d="M315 464 L162.00 464.00" class="vo"/>

<text x="74" y="166" class="label blue">A</text>
<text x="74" y="310" class="label green">2A</text>
<text x="74" y="454" class="label orange">−A</text>
<text x="510" y="211" class="small blue">同向</text>
<text x="660" y="355" class="small green">两倍</text>
<text x="382" y="502" class="small orange">反向</text>

</svg>
